<?xml version="1.0" encoding="UTF-8" standalone="no"?>
<svg
   xmlns:dc="http://purl.org/dc/elements/1.1/"
   xmlns:cc="http://creativecommons.org/ns#"
   xmlns:rdf="http://www.w3.org/1999/02/22-rdf-syntax-ns#"
   xmlns:svg="http://www.w3.org/2000/svg"
   xmlns="http://www.w3.org/2000/svg"
   xmlns:sodipodi="http://sodipodi.sourceforge.net/DTD/sodipodi-0.dtd"
   xmlns:inkscape="http://www.inkscape.org/namespaces/inkscape"
   width="200"
   height="200"
   viewBox="0 0 52.916666 52.916668"
   version="1.1"
   id="svg8"
   inkscape:version="1.0.1 (3bc2e813f5, 2020-09-07)"
   sodipodi:docname="backend.svg">
  <defs
     id="defs2" />
  <sodipodi:namedview
     id="base"
     pagecolor="#ffffff"
     bordercolor="#666666"
     borderopacity="1.0"
     inkscape:pageopacity="0.0"
     inkscape:pageshadow="2"
     inkscape:zoom="1.3293607"
     inkscape:cx="-21.237786"
     inkscape:cy="146.05426"
     inkscape:document-units="px"
     inkscape:current-layer="layer1"
     inkscape:document-rotation="0"
     showgrid="true"
     inkscape:window-width="1920"
     inkscape:window-height="1025"
     inkscape:window-x="-8"
     inkscape:window-y="-8"
     inkscape:window-maximized="1"
     inkscape:snap-bbox="false"
     inkscape:snap-global="false"
     units="px">
    <inkscape:grid
       type="xygrid"
       id="grid857" />
  </sodipodi:namedview>
  <metadata
     id="metadata5">
    <rdf:RDF>
      <cc:Work
         rdf:about="">
        <dc:format>image/svg+xml</dc:format>
        <dc:type
           rdf:resource="http://purl.org/dc/dcmitype/StillImage" />
        <dc:title></dc:title>
      </cc:Work>
    </rdf:RDF>
  </metadata>
  <g
     inkscape:groupmode="layer"
     id="layer3"
     inkscape:label="hide"
     style="display:none">
    <g
       id="g942"
       transform="matrix(0.74480849,0,0,0.73005112,-133.96974,-23.133614)"
       style="display:inline;opacity:1">
      <path
         id="path835"
         style="fill:none;stroke:#20639b;stroke-width:20;stroke-linejoin:round;stroke-miterlimit:4;stroke-dasharray:none;stroke-opacity:1"
         d="M 390,185 A 110,110 0 0 0 280,295 110,110 0 0 0 380,404.54297 V 325 h 40 v 75.82617 a 110,110 0 0 0 10,-3.35937 V 300 h 40 v 70.49414 a 110,110 0 0 0 10,-12.25195 V 294.99805 H 390.00195 V 185 A 110,110 0 0 0 390,185 Z"
         transform="scale(0.26458333)" />
      <path
         id="circle859"
         style="fill:#fdffba;fill-opacity:1;stroke:none;stroke-width:0.539679;stroke-opacity:1;paint-order:markers fill stroke"
         d="m 109.80208,39.688016 v 29.103651 h 11.90625 v -2.645834 h 17.07648 C 137.41654,51.160118 124.85013,39.688468 109.80208,39.688016 Z"
         sodipodi:nodetypes="cccccc" />
      <rect
         style="opacity:1;fill:none;fill-opacity:1;stroke:#20639b;stroke-width:5.29167;stroke-linejoin:round;stroke-miterlimit:4;stroke-dasharray:none;stroke-opacity:1"
         id="rect897"
         width="10.58335"
         height="21.166672"
         x="100.54166"
         y="85.989586" />
      <rect
         style="opacity:1;fill:none;fill-opacity:1;stroke:#20639b;stroke-width:5.29167;stroke-miterlimit:4;stroke-dasharray:none;stroke-opacity:1"
         id="rect899"
         width="10.58335"
         height="27.78125"
         x="113.77084"
         y="79.375" />
      <rect
         style="opacity:1;fill:none;fill-opacity:1;stroke:#20639b;stroke-width:5.29167;stroke-linejoin:round;stroke-miterlimit:4;stroke-dasharray:none;stroke-opacity:1"
         id="rect901"
         width="10.58335"
         height="34.395828"
         x="126.99998"
         y="72.760414" />
    </g>
    <g
       id="g999"
       transform="matrix(1.3252472,0,0,1.3252472,-137.53233,-8.3601285)"
       style="display:inline">
      <path
         style="fill:none;stroke:#20639b;stroke-width:2.87258;stroke-linecap:butt;stroke-linejoin:miter;stroke-miterlimit:4;stroke-dasharray:none;stroke-opacity:1"
         d="m 112.58966,11.292039 c 0,0 -7.98475,4.157737 -6.75633,13.843377 1.34197,10.580936 11.90625,13.229167 17.19792,13.229167 5.29167,0 11.271,-2.698417 11.10304,-5.338913 -0.36929,-5.805822 -8.77347,-4.711032 -6.46612,-7.302328 2.06213,-2.3159 5.57437,-10.215783 0.18702,-14.143073 -7.24491,-5.2814274 -15.26553,-0.28823 -15.26553,-0.28823 z"
         id="path976"
         sodipodi:nodetypes="csssssc" />
      <circle
         style="opacity:1;fill:#fdffba;fill-opacity:1;stroke:none;stroke-width:2.87258;stroke-linejoin:round;stroke-miterlimit:4;stroke-dasharray:none;stroke-opacity:1;paint-order:markers fill stroke"
         id="path978"
         cx="118.09972"
         cy="15.802308"
         r="2.706104" />
      <circle
         style="opacity:1;fill:#fdffba;fill-opacity:1;stroke:none;stroke-width:2.87258;stroke-linejoin:round;stroke-miterlimit:4;stroke-dasharray:none;stroke-opacity:1;paint-order:markers fill stroke"
         id="circle980"
         cx="112.62069"
         cy="22.283594"
         r="2.706104" />
      <circle
         style="opacity:1;fill:#fdffba;fill-opacity:1;stroke:none;stroke-width:2.87258;stroke-linejoin:round;stroke-miterlimit:4;stroke-dasharray:none;stroke-opacity:1;paint-order:markers fill stroke"
         id="circle982"
         cx="117.56517"
         cy="29.366238"
         r="2.706104" />
      <g
         id="g990"
         transform="matrix(0.48689219,0.58792395,-0.58792395,0.48689219,78.366851,-71.562061)">
        <path
           style="fill:#fdffba;fill-opacity:1;stroke:none;stroke-width:0.264583px;stroke-linecap:butt;stroke-linejoin:miter;stroke-opacity:1"
           d="m 145.74925,23.146664 c -3.7397,-3.137904 -2.61218,-6.951618 -2.61218,-6.951618 0,0 3.52191,-1.502599 2.77061,-3.263551 -0.75131,-1.760954 -2.71183,-2.555981 -2.71183,-2.555981 0,0 3.48714,-1.4028345 5.57175,4.044791 2.08461,5.447623 -3.01835,8.726359 -3.01835,8.726359 z"
           id="path986" />
        <path
           style="fill:#20639b;fill-opacity:1;stroke:none;stroke-width:0.261016px;stroke-linecap:butt;stroke-linejoin:miter;stroke-opacity:1"
           d="m 143.53467,25.58747 0.47284,34.275961 c 0,0 0.2837,1.74596 2.08047,1.654067 1.79677,-0.09189 1.98591,-1.837853 1.98591,-1.837853 l 0.0946,-34.092175 c 0,0 -0.37826,-2.572994 -1.89134,-3.859491 -1.51308,-1.286497 -2.74244,3.859491 -2.74244,3.859491 z"
           id="path984"
           sodipodi:nodetypes="ccscczcc" />
      </g>
    </g>
  </g>
  <g
     inkscape:label="active"
     inkscape:groupmode="layer"
     id="layer1"
     style="display:inline">
    <g
       aria-label="{}"
       transform="matrix(1.2754544,0,0,-1.4758081,-74.974893,65.002152)"
       id="text946"
       style="font-style:normal;font-weight:normal;font-size:36.9764px;line-height:1.25;font-family:sans-serif;display:inline;fill:#20639b;fill-opacity:1;stroke:none;stroke-width:0.424;stroke-linejoin:round;stroke-miterlimit:4;stroke-dasharray:none;stroke-opacity:1">
      <path
         d="m 99.089964,27.33938 c -0.251804,0.15168 -0.844565,0.186673 -0.844565,0.186673 -2.058257,0 -3.586903,0.577756 -4.58594,1.733268 -0.999037,1.143476 -1.498556,2.732306 -1.498556,4.766489 v 2.690178 c 0,2.262879 -0.674049,3.990129 -2.022146,5.181751 -1.336061,1.203659 -3.081605,1.816469 -5.235916,1.805488 -2.154311,-0.01098 -2.929789,-0.543272 -2.923436,-1.28008 0.0085,-0.983848 1.499268,-1.228746 2.27346,-1.211494 1.636026,-0.0482 2.82258,-0.379152 3.556812,-1.137457 0.746268,-0.758305 1.119402,-1.980019 1.119402,-3.665141 V 33.24945 c 0,-1.673085 0.463409,-3.075348 1.390226,-4.206787 0.926817,-1.143476 2.214732,-2.04622 3.863745,-2.708232 V 25.901113 C 92.534037,25.239101 91.246122,24.342375 90.319305,23.210936 89.392488,22.06746 88.929079,20.659179 88.929079,18.986094 v -3.159605 c 0,-1.685122 -0.373134,-2.906836 -1.119402,-3.665141 -0.734232,-0.758305 -1.919836,-1.137457 -3.556812,-1.137457 0,0 -1.59109,0.09316 -2.076226,-0.326112 -0.67952,-0.58727 -0.67952,-1.0812605 -10e-7,-1.6685301 0.638337,-0.5516769 2.726202,-0.496932 2.726202,-0.496932 2.154549,0 3.899855,0.6018294 5.235916,1.8054881 1.348097,1.191622 2.022146,2.918872 2.022146,5.181751 v 2.690178 c 0,2.034183 0.499519,3.629031 1.498556,4.784543 0.999037,1.143476 2.527683,1.715214 4.58594,1.715214 0,0 0.701978,0.09739 0.94621,0.258048 0.984152,0.647399 1.009562,1.702481 -0.101644,2.371841 z"
         style="fill:#20639b;fill-opacity:1;stroke:none;stroke-width:0.424;stroke-linejoin:round;stroke-miterlimit:4;stroke-dasharray:none;stroke-opacity:1"
         id="path955"
         sodipodi:nodetypes="sscssczsccssccccsscsssscsscsss" />
      <path
         d="m 59.964292,27.33938 c 0.251804,0.15168 0.844565,0.186673 0.844565,0.186673 2.058257,0 3.586903,0.577756 4.58594,1.733268 0.999037,1.143476 1.498556,2.732306 1.498556,4.766489 v 2.690178 c 0,2.262879 0.674049,3.990129 2.022146,5.181751 1.336061,1.203659 3.081605,1.816469 5.235916,1.805488 2.154311,-0.01098 2.929789,-0.543272 2.923436,-1.28008 -0.0085,-0.983848 -1.499268,-1.228746 -2.27346,-1.211494 -1.636026,-0.0482 -2.82258,-0.379152 -3.556812,-1.137457 -0.746268,-0.758305 -1.119402,-1.980019 -1.119402,-3.665141 V 33.24945 c 0,-1.673085 -0.463409,-3.075348 -1.390226,-4.206787 -0.926817,-1.143476 -2.214732,-2.04622 -3.863745,-2.708232 v -0.433318 c 1.649013,-0.662012 2.936928,-1.558738 3.863745,-2.690177 0.926817,-1.143476 1.390226,-2.551757 1.390226,-4.224842 v -3.159605 c 0,-1.685122 0.373134,-2.906836 1.119402,-3.665141 0.734232,-0.758305 1.919836,-1.137457 3.556812,-1.137457 0,0 1.59109,0.09316 2.076226,-0.326112 0.67952,-0.58727 0.67952,-1.0812605 10e-7,-1.6685301 -0.638337,-0.5516769 -2.726202,-0.496932 -2.726202,-0.496932 -2.154549,0 -3.899855,0.6018294 -5.235916,1.8054881 -1.348097,1.191622 -2.022146,2.918872 -2.022146,5.181751 v 2.690178 c 0,2.034183 -0.499519,3.629031 -1.498556,4.784543 -0.999037,1.143476 -2.527683,1.715214 -4.58594,1.715214 0,0 -0.701978,0.09739 -0.94621,0.258048 -0.98415,0.647399 -1.009561,1.702481 0.101644,2.371841 z"
         style="fill:#20639b;fill-opacity:1;stroke:none;stroke-width:0.424;stroke-linejoin:round;stroke-miterlimit:4;stroke-dasharray:none;stroke-opacity:1"
         id="path972"
         sodipodi:nodetypes="sscssczsccssccccsscsssscsscsss" />
    </g>
  </g>
</svg>
