<?xml version="1.0" encoding="UTF-8" standalone="no"?>
<svg
   xmlns:dc="http://purl.org/dc/elements/1.1/"
   xmlns:cc="http://creativecommons.org/ns#"
   xmlns:rdf="http://www.w3.org/1999/02/22-rdf-syntax-ns#"
   xmlns:svg="http://www.w3.org/2000/svg"
   xmlns="http://www.w3.org/2000/svg"
   xmlns:sodipodi="http://sodipodi.sourceforge.net/DTD/sodipodi-0.dtd"
   xmlns:inkscape="http://www.inkscape.org/namespaces/inkscape"
   width="200"
   height="200"
   viewBox="0 0 52.916666 52.916668"
   version="1.1"
   id="svg8"
   inkscape:version="1.0.1 (3bc2e813f5, 2020-09-07)"
   sodipodi:docname="experience.svg">
  <defs
     id="defs2">
    <inkscape:perspective
       sodipodi:type="inkscape:persp3d"
       inkscape:vp_x="0 : 26.458334 : 1"
       inkscape:vp_y="0 : 1000 : 0"
       inkscape:vp_z="52.916666 : 26.458334 : 1"
       inkscape:persp3d-origin="26.458333 : 17.638889 : 1"
       id="perspective4049" />
    <filter
       inkscape:collect="always"
       style="color-interpolation-filters:sRGB"
       id="filter889"
       x="-5.8673502e-05"
       width="1.0001173"
       y="-5.8927053e-05"
       height="1.0001179">
      <feGaussianBlur
         inkscape:collect="always"
         stdDeviation="0.00088714845"
         id="feGaussianBlur891" />
    </filter>
  </defs>
  <sodipodi:namedview
     id="base"
     pagecolor="#ffffff"
     bordercolor="#666666"
     borderopacity="1.0"
     inkscape:pageopacity="0.0"
     inkscape:pageshadow="2"
     inkscape:zoom="1.88"
     inkscape:cx="-82.154866"
     inkscape:cy="111.90472"
     inkscape:document-units="px"
     inkscape:current-layer="g993"
     inkscape:document-rotation="0"
     showgrid="true"
     inkscape:window-width="1920"
     inkscape:window-height="1025"
     inkscape:window-x="-8"
     inkscape:window-y="-8"
     inkscape:window-maximized="1"
     inkscape:snap-bbox="false"
     inkscape:snap-global="false"
     units="px">
    <inkscape:grid
       type="xygrid"
       id="grid857" />
  </sodipodi:namedview>
  <metadata
     id="metadata5">
    <rdf:RDF>
      <cc:Work
         rdf:about="">
        <dc:format>image/svg+xml</dc:format>
        <dc:type
           rdf:resource="http://purl.org/dc/dcmitype/StillImage" />
        <dc:title></dc:title>
      </cc:Work>
    </rdf:RDF>
  </metadata>
  <g
     inkscape:groupmode="layer"
     id="layer4"
     inkscape:label="hide"
     style="display:none">
    <g
       id="g942"
       transform="matrix(0.74480849,0,0,0.73005112,-115.27614,-28.109376)"
       style="opacity:1">
      <path
         id="path835"
         style="fill:none;stroke:#20639b;stroke-width:20;stroke-linejoin:round;stroke-miterlimit:4;stroke-dasharray:none;stroke-opacity:1"
         d="M 390,185 A 110,110 0 0 0 280,295 110,110 0 0 0 380,404.54297 V 325 h 40 v 75.82617 a 110,110 0 0 0 10,-3.35937 V 300 h 40 v 70.49414 a 110,110 0 0 0 10,-12.25195 V 294.99805 H 390.00195 V 185 A 110,110 0 0 0 390,185 Z"
         transform="scale(0.26458333)" />
      <path
         id="circle859"
         style="fill:#fdffba;fill-opacity:1;stroke:none;stroke-width:0.539679;stroke-opacity:1;paint-order:markers fill stroke"
         d="m 109.80208,39.688016 v 29.103651 h 11.90625 v -2.645834 h 17.07648 C 137.41654,51.160118 124.85013,39.688468 109.80208,39.688016 Z"
         sodipodi:nodetypes="cccccc" />
      <rect
         style="opacity:1;fill:none;fill-opacity:1;stroke:#20639b;stroke-width:5.29167;stroke-linejoin:round;stroke-miterlimit:4;stroke-dasharray:none;stroke-opacity:1"
         id="rect897"
         width="10.58335"
         height="21.166672"
         x="100.54166"
         y="85.989586" />
      <rect
         style="opacity:1;fill:none;fill-opacity:1;stroke:#20639b;stroke-width:5.29167;stroke-miterlimit:4;stroke-dasharray:none;stroke-opacity:1"
         id="rect899"
         width="10.58335"
         height="27.78125"
         x="113.77084"
         y="79.375" />
      <rect
         style="opacity:1;fill:none;fill-opacity:1;stroke:#20639b;stroke-width:5.29167;stroke-linejoin:round;stroke-miterlimit:4;stroke-dasharray:none;stroke-opacity:1"
         id="rect901"
         width="10.58335"
         height="34.395828"
         x="126.99998"
         y="72.760414" />
    </g>
    <g
       aria-label="{}"
       transform="matrix(1.2754544,0,0,-1.4758081,-18.962034,63.876267)"
       id="text946"
       style="font-style:normal;font-weight:normal;font-size:36.9764px;line-height:1.25;font-family:sans-serif;fill:#20639b;fill-opacity:1;stroke:none;stroke-width:0.424;stroke-linejoin:round;stroke-miterlimit:4;stroke-dasharray:none;stroke-opacity:1">
      <path
         d="m 99.089964,27.33938 c -0.251804,0.15168 -0.844565,0.186673 -0.844565,0.186673 -2.058257,0 -3.586903,0.577756 -4.58594,1.733268 -0.999037,1.143476 -1.498556,2.732306 -1.498556,4.766489 v 2.690178 c 0,2.262879 -0.674049,3.990129 -2.022146,5.181751 -1.336061,1.203659 -3.081605,1.816469 -5.235916,1.805488 -2.154311,-0.01098 -2.929789,-0.543272 -2.923436,-1.28008 0.0085,-0.983848 1.499268,-1.228746 2.27346,-1.211494 1.636026,-0.0482 2.82258,-0.379152 3.556812,-1.137457 0.746268,-0.758305 1.119402,-1.980019 1.119402,-3.665141 V 33.24945 c 0,-1.673085 0.463409,-3.075348 1.390226,-4.206787 0.926817,-1.143476 2.214732,-2.04622 3.863745,-2.708232 V 25.901113 C 92.534037,25.239101 91.246122,24.342375 90.319305,23.210936 89.392488,22.06746 88.929079,20.659179 88.929079,18.986094 v -3.159605 c 0,-1.685122 -0.373134,-2.906836 -1.119402,-3.665141 -0.734232,-0.758305 -1.919836,-1.137457 -3.556812,-1.137457 0,0 -1.59109,0.09316 -2.076226,-0.326112 -0.67952,-0.58727 -0.67952,-1.0812605 -10e-7,-1.6685301 0.638337,-0.5516769 2.726202,-0.496932 2.726202,-0.496932 2.154549,0 3.899855,0.6018294 5.235916,1.8054881 1.348097,1.191622 2.022146,2.918872 2.022146,5.181751 v 2.690178 c 0,2.034183 0.499519,3.629031 1.498556,4.784543 0.999037,1.143476 2.527683,1.715214 4.58594,1.715214 0,0 0.701978,0.09739 0.94621,0.258048 0.984152,0.647399 1.009562,1.702481 -0.101644,2.371841 z"
         style="fill:#20639b;fill-opacity:1;stroke:none;stroke-width:0.424;stroke-linejoin:round;stroke-miterlimit:4;stroke-dasharray:none;stroke-opacity:1"
         id="path955"
         sodipodi:nodetypes="sscssczsccssccccsscsssscsscsss" />
      <path
         d="m 59.964292,27.33938 c 0.251804,0.15168 0.844565,0.186673 0.844565,0.186673 2.058257,0 3.586903,0.577756 4.58594,1.733268 0.999037,1.143476 1.498556,2.732306 1.498556,4.766489 v 2.690178 c 0,2.262879 0.674049,3.990129 2.022146,5.181751 1.336061,1.203659 3.081605,1.816469 5.235916,1.805488 2.154311,-0.01098 2.929789,-0.543272 2.923436,-1.28008 -0.0085,-0.983848 -1.499268,-1.228746 -2.27346,-1.211494 -1.636026,-0.0482 -2.82258,-0.379152 -3.556812,-1.137457 -0.746268,-0.758305 -1.119402,-1.980019 -1.119402,-3.665141 V 33.24945 c 0,-1.673085 -0.463409,-3.075348 -1.390226,-4.206787 -0.926817,-1.143476 -2.214732,-2.04622 -3.863745,-2.708232 v -0.433318 c 1.649013,-0.662012 2.936928,-1.558738 3.863745,-2.690177 0.926817,-1.143476 1.390226,-2.551757 1.390226,-4.224842 v -3.159605 c 0,-1.685122 0.373134,-2.906836 1.119402,-3.665141 0.734232,-0.758305 1.919836,-1.137457 3.556812,-1.137457 0,0 1.59109,0.09316 2.076226,-0.326112 0.67952,-0.58727 0.67952,-1.0812605 10e-7,-1.6685301 -0.638337,-0.5516769 -2.726202,-0.496932 -2.726202,-0.496932 -2.154549,0 -3.899855,0.6018294 -5.235916,1.8054881 -1.348097,1.191622 -2.022146,2.918872 -2.022146,5.181751 v 2.690178 c 0,2.034183 -0.499519,3.629031 -1.498556,4.784543 -0.999037,1.143476 -2.527683,1.715214 -4.58594,1.715214 0,0 -0.701978,0.09739 -0.94621,0.258048 -0.98415,0.647399 -1.009561,1.702481 0.101644,2.371841 z"
         style="fill:#20639b;fill-opacity:1;stroke:none;stroke-width:0.424;stroke-linejoin:round;stroke-miterlimit:4;stroke-dasharray:none;stroke-opacity:1"
         id="path972"
         sodipodi:nodetypes="sscssczsccssccccsscsssscsscsss" />
    </g>
    <g
       id="g999"
       transform="matrix(1.3252472,0,0,1.3252472,-137.53233,-8.3601285)">
      <path
         style="fill:none;stroke:#20639b;stroke-width:2.87258;stroke-linecap:butt;stroke-linejoin:miter;stroke-miterlimit:4;stroke-dasharray:none;stroke-opacity:1"
         d="m 112.58966,11.292039 c 0,0 -7.98475,4.157737 -6.75633,13.843377 1.34197,10.580936 11.90625,13.229167 17.19792,13.229167 5.29167,0 11.271,-2.698417 11.10304,-5.338913 -0.36929,-5.805822 -8.77347,-4.711032 -6.46612,-7.302328 2.06213,-2.3159 5.57437,-10.215783 0.18702,-14.143073 -7.24491,-5.2814274 -15.26553,-0.28823 -15.26553,-0.28823 z"
         id="path976"
         sodipodi:nodetypes="csssssc" />
      <circle
         style="opacity:1;fill:#fdffba;fill-opacity:1;stroke:none;stroke-width:2.87258;stroke-linejoin:round;stroke-miterlimit:4;stroke-dasharray:none;stroke-opacity:1;paint-order:markers fill stroke"
         id="path978"
         cx="118.09972"
         cy="15.802308"
         r="2.706104" />
      <circle
         style="opacity:1;fill:#fdffba;fill-opacity:1;stroke:none;stroke-width:2.87258;stroke-linejoin:round;stroke-miterlimit:4;stroke-dasharray:none;stroke-opacity:1;paint-order:markers fill stroke"
         id="circle980"
         cx="112.62069"
         cy="22.283594"
         r="2.706104" />
      <circle
         style="opacity:1;fill:#fdffba;fill-opacity:1;stroke:none;stroke-width:2.87258;stroke-linejoin:round;stroke-miterlimit:4;stroke-dasharray:none;stroke-opacity:1;paint-order:markers fill stroke"
         id="circle982"
         cx="117.56517"
         cy="29.366238"
         r="2.706104" />
      <g
         id="g990"
         transform="matrix(0.48689219,0.58792395,-0.58792395,0.48689219,78.366851,-71.562061)">
        <path
           style="fill:#fdffba;fill-opacity:1;stroke:none;stroke-width:0.264583px;stroke-linecap:butt;stroke-linejoin:miter;stroke-opacity:1"
           d="m 145.74925,23.146664 c -3.7397,-3.137904 -2.61218,-6.951618 -2.61218,-6.951618 0,0 3.52191,-1.502599 2.77061,-3.263551 -0.75131,-1.760954 -2.71183,-2.555981 -2.71183,-2.555981 0,0 3.48714,-1.4028345 5.57175,4.044791 2.08461,5.447623 -3.01835,8.726359 -3.01835,8.726359 z"
           id="path986" />
        <path
           style="fill:#20639b;fill-opacity:1;stroke:none;stroke-width:0.261016px;stroke-linecap:butt;stroke-linejoin:miter;stroke-opacity:1"
           d="m 143.53467,25.58747 0.47284,34.275961 c 0,0 0.2837,1.74596 2.08047,1.654067 1.79677,-0.09189 1.98591,-1.837853 1.98591,-1.837853 l 0.0946,-34.092175 c 0,0 -0.37826,-2.572994 -1.89134,-3.859491 -1.51308,-1.286497 -2.74244,3.859491 -2.74244,3.859491 z"
           id="path984"
           sodipodi:nodetypes="ccscczcc" />
      </g>
    </g>
  </g>
  <g
     inkscape:label="active"
     inkscape:groupmode="layer"
     id="layer1">
    <g
       id="g4068"
       transform="matrix(0.37835433,0,0,0.37835433,-21.881375,-26.240624)">
      <path
         id="rect4060"
         style="fill:#ffffff;fill-opacity:1;stroke:none;stroke-width:10.857;stroke-linejoin:round;stroke-opacity:1;paint-order:markers fill stroke"
         d="m -100,500 v 290 h 2.179688 L -17.460938,700.1875 60,786.76172 V 500 Z"
         transform="scale(0.26458333)" />
      <path
         id="rect4051"
         style="fill:#fdffba;fill-opacity:1;stroke:none;stroke-width:2.87258;stroke-linejoin:round;stroke-opacity:1;paint-order:markers fill stroke"
         d="m 25.135083,87.312501 -18.484041,1.13e-4 -13.265864,-12.872431 -12.490614,12.872376 -17.936229,2.73e-4 1.12e-4,18.484048 -12.872429,13.26585 12.872375,12.49062 2.75e-4,17.93623 18.484037,-1.1e-4 13.2658647,12.87243 12.4906132,-12.87238 17.9362311,-2.7e-4 -1.12e-4,-18.48405 12.872429,-13.26585 -12.872375,-12.49062 z" />
    </g>
    <g
       id="g903"
       transform="matrix(1.1600639,0,0,1.0973547,-55.790996,49.257904)">
      <g
         id="g897">
        <path
           style="fill:#20639b;fill-opacity:1;stroke:none;stroke-width:0.264583px;stroke-linecap:butt;stroke-linejoin:miter;stroke-opacity:1;filter:url(#filter889)"
           d="m 11.543769,18.310806 c 0,0 -2.9854577,-1.990305 -2.1893357,-5.075278 0.7961217,-3.084973 2.4878817,-6.368976 2.4878817,-6.368976 0,0 2.332475,-2.642743 10.847162,-1.7912743 4.975761,0.4975762 5.67237,4.2791555 12.737951,5.3738233 7.065584,1.094667 7.165097,1.094668 7.165097,1.094668 0,0 3.881096,7.96122 2.686913,12.439406 -1.194184,4.478186 -6.667523,10.449102 -6.866553,12.737951 -0.19903,2.288852 0.796124,4.179639 0.796124,4.179639 0,0 -3.980612,0.597094 -5.274311,-0.696604 -1.293698,-1.293699 -1.293696,-3.38352 -1.293696,-3.38352 z"
           id="path863"
           sodipodi:nodetypes="cscsscsscscc" />
        <path
           style="fill:#fdffba;fill-opacity:1;stroke:none;stroke-width:1.06096;stroke-linecap:butt;stroke-linejoin:round;stroke-miterlimit:4;stroke-dasharray:none;stroke-opacity:1"
           d="m 11.976028,17.671289 c 0,0 -1.47814,3.660157 -1.689303,5.771786 -0.211163,2.11163 1.407753,3.378608 1.055815,4.152871 -0.351939,0.774265 -0.703877,2.041243 -2.252405,3.941709 -1.138782,1.397595 -2.67473,1.900465 -2.745118,3.097055 -0.07039,1.196591 2.745118,2.041242 3.730545,2.463569 0.985427,0.422325 -1.337365,2.04124 -1.337365,2.04124 0,0 0.351938,0.774265 1.19659,1.407755 0.844652,0.633487 -0.844652,1.548527 -0.844652,1.548527 0,0 1.407753,1.759691 1.900467,2.393181 0.492713,0.633488 -1.19659,2.956279 -0.563102,3.660156 0.633489,0.703877 1.19659,2.252404 4.927135,1.689303 3.730545,-0.563102 13.092102,-3.660157 14.851792,-5.490235 1.759692,-1.830079 2.322793,-8.235355 2.322793,-8.235355 0,0 0.774265,0.351938 1.759692,0.703878 0.985427,0.351937 5.63101,-4.434423 4.927134,-6.827603 -0.74631,-2.537452 -2.252405,-4.293646 -3.58977,-4.293646 -1.337365,0 -3.378607,2.041242 -3.378607,2.041242 l -0.28155,5.208686 c 0,0 -3.167444,0.985427 -3.378607,-1.126203 -0.211162,-2.111629 -1.196591,-5.279073 -1.196591,-5.279073 0,0 -4.43442,-1.970854 -5.842174,-3.378607 -1.716218,-1.716216 -1.196589,-6.546051 -1.196589,-6.546051 z"
           id="path893"
           sodipodi:nodetypes="cssssscscsssscsssccscscc" />
      </g>
      <path
         style="fill:none;stroke:#504e4b;stroke-width:1.06096;stroke-linecap:butt;stroke-linejoin:round;stroke-miterlimit:4;stroke-dasharray:none;stroke-opacity:1"
         d="m 11.179906,18.666441 c 0,0 -1.4781398,3.660157 -1.6893028,5.771786 -0.211163,2.11163 1.4077528,3.378608 1.0558148,4.152871 -0.351939,0.774265 -0.7038768,2.041243 -2.2524048,3.941709 -1.138782,1.397595 -2.67473,1.900465 -2.745118,3.097055 -0.07039,1.196591 2.745118,2.041242 3.730545,2.463569 0.9854268,0.422325 -1.337365,2.04124 -1.337365,2.04124 0,0 0.351938,0.774265 1.19659,1.407755 0.844652,0.633487 -0.844652,1.548527 -0.844652,1.548527 0,0 1.407753,1.759691 1.9004668,2.393181 0.492713,0.633488 -1.1965898,2.956279 -0.5631018,3.660156 0.6334888,0.703877 1.1965898,2.252404 4.9271348,1.689303 3.730545,-0.563102 13.092102,-3.660157 14.851792,-5.490235 1.759692,-1.830079 2.322793,-8.235355 2.322793,-8.235355 0,0 0.774265,0.351938 1.759692,0.703878 0.985427,0.351937 5.63101,-4.434423 4.927134,-6.827603 -0.74631,-2.537452 -2.252405,-4.293646 -3.58977,-4.293646 -1.337365,0 -3.378607,2.041242 -3.378607,2.041242 l -0.28155,5.208686 c 0,0 -3.167444,0.985427 -3.378607,-1.126203 -0.211162,-2.111629 -1.196591,-5.279073 -1.196591,-5.279073 0,0 -4.43442,-1.970854 -5.842174,-3.378607 -1.716218,-1.716216 -1.196589,-6.546051 -1.196589,-6.546051 z"
         id="path861"
         sodipodi:nodetypes="cssssscscsssscsssccscscc" />
    </g>
    <g
       id="g936"
       transform="matrix(1.0637543,0,0,1.0637543,0.0948095,56.02957)">
      <path
         id="path905"
         style="fill:#fdffba;fill-opacity:1;stroke:none;stroke-width:1.38784;stroke-linejoin:round;stroke-miterlimit:4;stroke-dasharray:none;stroke-opacity:1;paint-order:stroke fill markers"
         d="m 26.551329,5.8996498 a 16.020902,16.020902 0 0 0 -16.001376,16.0209812 16.020902,16.020902 0 0 0 8.10468,13.928233 c 0.02137,1.965142 1.60837,3.540985 3.578758,3.540985 h 8.675083 c 1.970388,0 3.557384,-1.575843 3.578758,-3.540985 a 16.020902,16.020902 0 0 0 8.10468,-13.928233 16.020902,16.020902 0 0 0 -16.02098,-16.0209812 16.020902,16.020902 0 0 0 -0.0196,0 z" />
      <path
         id="path912"
         style="fill:none;fill-opacity:1;stroke:#504e4b;stroke-width:2.44799;stroke-linejoin:round;stroke-miterlimit:4;stroke-dasharray:none;stroke-opacity:1;paint-order:stroke fill markers"
         d="M 28.113879,3.8162498 A 16.020902,16.020902 0 0 0 12.112502,19.837232 16.020902,16.020902 0 0 0 20.217183,33.765463 c 0.02137,1.965143 1.60837,3.540986 3.578758,3.540986 h 8.675083 c 1.970388,0 3.557385,-1.575843 3.578757,-3.540986 A 16.020902,16.020902 0 0 0 44.154462,19.837232 16.020902,16.020902 0 0 0 28.133483,3.8162498 a 16.020902,16.020902 0 0 0 -0.01961,0 z" />
      <rect
         style="fill:#20639b;fill-opacity:1;stroke:none;stroke-width:1.34597;stroke-linejoin:round;stroke-miterlimit:4;stroke-dasharray:none;stroke-opacity:1;paint-order:stroke fill markers"
         id="rect914"
         width="13.308366"
         height="3.8255236"
         x="19.91675"
         y="41.607491"
         ry="1.1344656" />
      <rect
         style="fill:#20639b;fill-opacity:1;stroke:none;stroke-width:1.34597;stroke-linejoin:round;stroke-miterlimit:4;stroke-dasharray:none;stroke-opacity:1;paint-order:stroke fill markers"
         id="rect918"
         width="13.308366"
         height="3.8255236"
         x="19.91675"
         y="46.503483"
         ry="1.1344656" />
      <rect
         style="fill:none;fill-opacity:1;stroke:#504e4b;stroke-width:1.34597;stroke-linejoin:round;stroke-miterlimit:4;stroke-dasharray:none;stroke-opacity:1;paint-order:stroke fill markers"
         id="rect920"
         width="13.308366"
         height="3.8255236"
         x="20.761166"
         y="40.411236"
         ry="1.1344656" />
      <rect
         style="fill:none;fill-opacity:1;stroke:#504e4b;stroke-width:1.34597;stroke-linejoin:round;stroke-miterlimit:4;stroke-dasharray:none;stroke-opacity:1;paint-order:stroke fill markers"
         id="rect922"
         width="13.308366"
         height="3.8255236"
         x="20.690798"
         y="45.377598"
         ry="1.1344656" />
    </g>
    <g
       id="g1007"
       transform="matrix(1.2020139,0,0,1.2020139,-12.11833,-3.2464977)">
      <g
         id="g987">
        <g
           id="g979"
           transform="matrix(0.83333353,0,0,0.83333353,-4.8506993,-1.9843788)"
           style="fill:#fdffba;fill-opacity:1;stroke:none;stroke-width:1.905;stroke-miterlimit:4;stroke-dasharray:none">
          <path
             style="fill:#fdffba;fill-opacity:1;stroke:none;stroke-width:1.905;stroke-linecap:butt;stroke-linejoin:round;stroke-miterlimit:4;stroke-dasharray:none;stroke-opacity:1"
             d="M 19.84375,9.2604166 H 33.072916 L 26.458333,19.84375 Z"
             id="path975"
             sodipodi:nodetypes="cccc" />
          <path
             style="fill:#fdffba;fill-opacity:1;stroke:none;stroke-width:1.905;stroke-linecap:butt;stroke-linejoin:round;stroke-miterlimit:4;stroke-dasharray:none;stroke-opacity:1"
             d="m 19.84375,47.625001 6.614583,6.614583 6.614583,-6.614583 -6.614583,-27.781251 z"
             id="path977"
             sodipodi:nodetypes="ccccc" />
        </g>
        <g
           id="g962"
           transform="matrix(0.83333353,0,0,0.83333353,-2.9599095,-3.110637)"
           style="stroke-width:1.905;stroke-miterlimit:4;stroke-dasharray:none">
          <path
             style="fill:none;stroke:#504e4b;stroke-width:1.905;stroke-linecap:butt;stroke-linejoin:round;stroke-miterlimit:4;stroke-dasharray:none;stroke-opacity:1"
             d="M 19.84375,9.2604166 H 33.072916 L 26.458333,19.84375 Z"
             id="path956"
             sodipodi:nodetypes="cccc" />
          <path
             style="fill:none;stroke:#504e4b;stroke-width:1.905;stroke-linecap:butt;stroke-linejoin:round;stroke-miterlimit:4;stroke-dasharray:none;stroke-opacity:1"
             d="m 19.84375,47.625001 6.614583,6.614583 6.614583,-6.614583 -6.614583,-27.781251 z"
             id="path958"
             sodipodi:nodetypes="ccccc" />
        </g>
      </g>
      <g
         id="g993"
         transform="matrix(1.3203497,0,0,1.3203497,-18.561309,4.1559263)">
        <path
           style="fill:#504e4b;fill-opacity:1;stroke:none;stroke-width:2.11667;stroke-linecap:butt;stroke-linejoin:miter;stroke-miterlimit:4;stroke-dasharray:none;stroke-opacity:1"
           d="m 30.34563,18.520833 v 3.96875 c 0,0 3.96875,2.941379 7.9375,2.941379 3.96875,0 7.9375,-2.941379 7.9375,-2.941379 v -3.96875 z"
           id="path968"
           sodipodi:nodetypes="ccsccc" />
        <rect
           style="fill:#20639b;fill-opacity:1;stroke:none;stroke-width:2.68676;stroke-linecap:round;stroke-linejoin:round;stroke-miterlimit:4;stroke-dasharray:none;stroke-opacity:1;paint-order:stroke fill markers"
           id="rect966"
           width="21.683241"
           height="11.93036"
           x="44.154488"
           y="12.792888"
           ry="0.56838095"
           transform="matrix(0.99097993,0.13401035,-0.86018742,0.50997804,0,0)" />
        <path
           style="fill:none;stroke:#504e4b;stroke-width:1.5875;stroke-linecap:round;stroke-linejoin:miter;stroke-miterlimit:4;stroke-dasharray:none;stroke-opacity:1"
           d="m 38.364583,17.375243 -5.291667,2.645834 V 30.60441"
           id="path970" />
        <path
           style="fill:none;stroke:#fdffba;stroke-width:1.5875;stroke-linecap:round;stroke-linejoin:miter;stroke-miterlimit:4;stroke-dasharray:none;stroke-opacity:1"
           d="m 38.13237,17.127548 -5.291667,2.645834 v 10.583333"
           id="path973" />
      </g>
    </g>
  </g>
</svg>
