<svg id="Capa_1" enable-background="new 0 0 512 512" height="512" viewBox="0 0 512 512" width="512" xmlns="http://www.w3.org/2000/svg"><g><g><g><g><g><g><path d="m263.997 124.179h116.497v148.838h-116.497z" fill="#fff59b" transform="matrix(.707 -.707 .707 .707 -46.046 286.031)"/></g></g></g></g></g><g fill="#020288"><path d="m502 443.534h-243.078l81.83-81.829 117.492-117.493c18.846-18.847 18.846-49.513 0-68.359l-113.253-113.254c-18.847-18.845-49.512-18.845-68.36 0l-117.492 117.494-105.382 105.381c-18.847 18.847-18.847 49.514 0 68.36l89.699 89.699h-133.456c-5.523 0-10 4.478-10 10s4.477 10 10 10h492c5.523 0 10-4.478 10-10s-4.477-9.999-10-9.999zm-211.226-366.792c11.048-11.049 29.026-11.048 40.075 0l113.253 113.253c11.048 11.049 11.048 29.025 0 40.074l-110.422 110.422-153.328-153.327zm-119.034 366.792-103.841-103.842c-5.353-5.352-8.3-12.468-8.3-20.037 0-7.57 2.947-14.687 8.3-20.038l98.311-98.311 153.328 153.327-88.901 88.9h-58.897z"/><path d="m449.375 370.269h-66.639c-5.523 0-10 4.478-10 10s4.477 10 10 10h66.639c5.523 0 10-4.478 10-10s-4.477-10-10-10z"/><path d="m333.68 399.376c-5.523 0-10 4.478-10 10s4.477 10 10 10h25.533c5.523 0 10-4.478 10-10s-4.477-10-10-10z"/></g></g></svg>