<?xml version="1.0" encoding="UTF-8" standalone="no"?>
<svg
   xmlns:dc="http://purl.org/dc/elements/1.1/"
   xmlns:cc="http://creativecommons.org/ns#"
   xmlns:rdf="http://www.w3.org/1999/02/22-rdf-syntax-ns#"
   xmlns:svg="http://www.w3.org/2000/svg"
   xmlns="http://www.w3.org/2000/svg"
   xmlns:xlink="http://www.w3.org/1999/xlink"
   xmlns:sodipodi="http://sodipodi.sourceforge.net/DTD/sodipodi-0.dtd"
   xmlns:inkscape="http://www.inkscape.org/namespaces/inkscape"
   width="793.70081"
   height="650"
   viewBox="0 0 210 171.97917"
   version="1.1"
   id="svg2477"
   inkscape:version="1.0.1 (3bc2e813f5, 2020-09-07)"
   sodipodi:docname="header.svg">
  <defs
     id="defs2471">
    <linearGradient
       inkscape:collect="always"
       id="linearGradient3140">
      <stop
         style="stop-color:#20639b;stop-opacity:1;"
         offset="0"
         id="stop3136" />
      <stop
         style="stop-color:#20639b;stop-opacity:0;"
         offset="1"
         id="stop3138" />
    </linearGradient>
    <filter
       inkscape:collect="always"
       style="color-interpolation-filters:sRGB"
       id="filter3076"
       x="-1.8725927e-05"
       width="1.0000376"
       y="-1.9698702e-05"
       height="1.0000395">
      <feGaussianBlur
         inkscape:collect="always"
         stdDeviation="0.0016721667"
         id="feGaussianBlur3078" />
    </filter>
    <linearGradient
       inkscape:collect="always"
       xlink:href="#linearGradient3140"
       id="linearGradient3158"
       x1="111.125"
       y1="42.333332"
       x2="111.125"
       y2="198.4375"
       gradientUnits="userSpaceOnUse" />
  </defs>
  <sodipodi:namedview
     id="base"
     pagecolor="#ffffff"
     bordercolor="#666666"
     borderopacity="1.0"
     inkscape:pageopacity="0.0"
     inkscape:pageshadow="2"
     inkscape:zoom="1.4"
     inkscape:cx="422.45398"
     inkscape:cy="91.87556"
     inkscape:document-units="mm"
     inkscape:current-layer="layer1"
     inkscape:document-rotation="0"
     showgrid="true"
     inkscape:snap-global="false"
     inkscape:window-width="1920"
     inkscape:window-height="1025"
     inkscape:window-x="-8"
     inkscape:window-y="-8"
     inkscape:window-maximized="1"
     units="px">
    <inkscape:grid
       type="xygrid"
       id="grid3040" />
  </sodipodi:namedview>
  <metadata
     id="metadata2474">
    <rdf:RDF>
      <cc:Work
         rdf:about="">
        <dc:format>image/svg+xml</dc:format>
        <dc:type
           rdf:resource="http://purl.org/dc/dcmitype/StillImage" />
        <dc:title></dc:title>
      </cc:Work>
    </rdf:RDF>
  </metadata>
  <g
     inkscape:label="bg"
     inkscape:groupmode="layer"
     id="layer1">
    <path
       style="fill:url(#linearGradient3158);fill-opacity:1;stroke:none;stroke-width:0.264583px;stroke-linecap:butt;stroke-linejoin:miter;stroke-opacity:0.164659;filter:url(#filter3076)"
       d="m 121.70833,-2.6458333 c 0,0 -17.20595,16.9002073 -12.92964,32.9363783 4.27631,16.036171 18.61595,12.164513 24.05426,31.537804 10.04205,35.773501 -37.15047,24.796669 -62.273803,42.970991 -25.123335,18.17433 -22.450641,50.75152 -43.832209,59.83869 -21.3815609,9.08716 -29.3727806,-3.2422 -29.3727806,-3.2422 v 39.6875 H 211.66667 V -2.6458333 Z"
       id="path3134"
       sodipodi:nodetypes="cssssccccc"
       transform="matrix(1,0,0,0.81818183,0,-0.48106056)" />
  </g>
  <g
     inkscape:groupmode="layer"
     id="layer3"
     inkscape:label="items">
    <g
       id="g3501"
       transform="matrix(0.65968875,0.36440032,-0.36440032,0.65968875,110.82158,26.729587)">
      <g
         id="g3486"
         transform="matrix(0.59694733,0,0,0.59172737,25.937919,15.573584)">
        <g
           id="g3478"
           style="fill:#fdffba;fill-opacity:1;stroke:none"
           transform="translate(-0.86862597,1.8708867)">
          <path
             style="fill:#fdffba;fill-opacity:1;stroke:none;stroke-width:1.66273;stroke-linecap:round;stroke-linejoin:round;stroke-miterlimit:4;stroke-dasharray:none;stroke-opacity:1"
             d="M 59.271821,40.292232 68.519657,30.559945 86.591648,30.728694 80.941987,43.694718 59.27922,40.313171 55.279018,55.940476 87.501488,65.956846 80.981399,43.845238 59.27922,40.313171"
             id="path3474"
             sodipodi:nodetypes="ccccccccc" />
          <path
             style="fill:#fdffba;fill-opacity:1;stroke:none;stroke-width:1.56861;stroke-linecap:round;stroke-linejoin:round;stroke-miterlimit:4;stroke-dasharray:none;stroke-opacity:1"
             d="M 87.742638,65.966289 97.716289,42.010295 86.855904,30.795613 81.160939,43.681896 Z"
             id="path3476"
             sodipodi:nodetypes="ccccc" />
        </g>
        <g
           id="g3472"
           style="stroke:#504e4b;stroke-opacity:1">
          <path
             style="fill:none;stroke:#504e4b;stroke-width:1.66273;stroke-linecap:round;stroke-linejoin:round;stroke-miterlimit:4;stroke-dasharray:none;stroke-opacity:1"
             d="M 59.271821,40.292232 68.519657,30.559945 86.591648,30.728694 80.941987,43.694718 59.27922,40.313171 55.279018,55.940476 87.501488,65.956846 80.981399,43.845238 59.27922,40.313171"
             id="path3466"
             sodipodi:nodetypes="ccccccccc" />
          <path
             style="fill:none;stroke:#504e4b;stroke-width:1.56861;stroke-linecap:round;stroke-linejoin:round;stroke-miterlimit:4;stroke-dasharray:none;stroke-opacity:1"
             d="M 87.742638,65.966289 97.716289,42.010295 86.855904,30.795613 81.160939,43.681896 Z"
             id="path3468"
             sodipodi:nodetypes="ccccc" />
        </g>
      </g>
      <text
         xml:space="preserve"
         style="font-style:normal;font-weight:normal;font-size:7.59054px;line-height:1.25;font-family:sans-serif;fill:#504e4b;fill-opacity:1;stroke:#504e4b;stroke-width:0.681432;stroke-miterlimit:4;stroke-dasharray:none;stroke-opacity:1"
         x="69.672874"
         y="38.794525"
         id="text3579-6"
         transform="matrix(1.2591232,0.12810801,-0.55947874,0.73727994,0,0)"
         inkscape:transform-center-x="-1.3229167"><tspan
           sodipodi:role="line"
           id="tspan3577-0"
           x="69.672874"
           y="38.794525"
           style="fill:#504e4b;fill-opacity:1;stroke:#504e4b;stroke-width:0.681432;stroke-miterlimit:4;stroke-dasharray:none;stroke-opacity:1">_</tspan></text>
    </g>
    <g
       id="g3521"
       transform="matrix(0.41282178,-0.29481522,0.29481522,0.41282178,56.556062,76.323205)">
      <g
         id="g3515"
         transform="matrix(0.59694733,0,0,0.59172737,25.937919,15.573584)">
        <g
           id="g3507"
           style="fill:#fdffba;fill-opacity:1;stroke:none"
           transform="translate(-0.86862597,1.8708867)">
          <path
             style="fill:#fdffba;fill-opacity:1;stroke:none;stroke-width:1.66273;stroke-linecap:round;stroke-linejoin:round;stroke-miterlimit:4;stroke-dasharray:none;stroke-opacity:1"
             d="m 59.271821,40.292232 9.247836,-9.732287 18.071991,0.168749 -6.0895,12.842559 L 59.27922,40.313171 55.279018,55.940476 86.766926,65.911171 80.532548,44.343879 59.27922,40.313171"
             id="path3503"
             sodipodi:nodetypes="ccccccccc" />
          <path
             style="fill:#fdffba;fill-opacity:1;stroke:none;stroke-width:1.56861;stroke-linecap:round;stroke-linejoin:round;stroke-miterlimit:4;stroke-dasharray:none;stroke-opacity:1"
             d="M 87.742638,65.966289 97.716289,42.010295 86.855904,30.795613 81.160939,43.681896 Z"
             id="path3505"
             sodipodi:nodetypes="ccccc" />
        </g>
        <g
           id="g3513"
           style="stroke:#504e4b;stroke-opacity:1">
          <path
             style="fill:none;stroke:#504e4b;stroke-width:1.66273;stroke-linecap:round;stroke-linejoin:round;stroke-miterlimit:4;stroke-dasharray:none;stroke-opacity:1"
             d="M 59.271821,40.292232 68.519657,30.559945 86.591648,30.728694 80.941987,43.694718 59.27922,40.313171 55.279018,55.940476 87.501488,65.956846 80.981399,43.845238 59.27922,40.313171"
             id="path3509"
             sodipodi:nodetypes="ccccccccc" />
          <path
             style="fill:none;stroke:#504e4b;stroke-width:1.56861;stroke-linecap:round;stroke-linejoin:round;stroke-miterlimit:4;stroke-dasharray:none;stroke-opacity:1"
             d="M 87.742638,65.966289 97.716289,42.010295 86.855904,30.795613 81.160939,43.681896 Z"
             id="path3511"
             sodipodi:nodetypes="ccccc" />
        </g>
      </g>
      <text
         xml:space="preserve"
         style="font-style:normal;font-weight:normal;font-size:7.59055px;line-height:1.25;font-family:sans-serif;fill:#504e4b;fill-opacity:1;stroke:none;stroke-width:0.189764;stroke-opacity:1"
         x="69.402748"
         y="41.852951"
         id="text3519"
         transform="matrix(1.2610718,0.10724274,-0.54719463,0.74644229,0,0)"><tspan
           sodipodi:role="line"
           id="tspan3517"
           x="69.402748"
           y="41.852951"
           style="fill:#504e4b;fill-opacity:1;stroke:none;stroke-width:0.189764;stroke-opacity:1">C</tspan></text>
    </g>
    <g
       id="g3541"
       transform="matrix(0.55052979,-0.07865413,0.07865413,0.55052979,100.45863,-0.07295865)">
      <g
         id="g3535"
         transform="matrix(0.59694733,0,0,0.59172737,25.937919,15.573584)">
        <g
           id="g3527"
           style="fill:#fdffba;fill-opacity:1;stroke:none"
           transform="translate(-0.86862597,1.8708867)">
          <path
             style="fill:#fdffba;fill-opacity:1;stroke:none;stroke-width:1.66273;stroke-linecap:round;stroke-linejoin:round;stroke-miterlimit:4;stroke-dasharray:none;stroke-opacity:1"
             d="M 59.271821,40.292232 68.519657,30.559945 86.591648,30.728694 80.564605,43.313998 59.27922,40.313171 55.279018,55.940476 86.937925,65.87562 80.392672,44.195489 59.27922,40.313171"
             id="path3523"
             sodipodi:nodetypes="ccccccccc" />
          <path
             style="fill:#fdffba;fill-opacity:1;stroke:none;stroke-width:1.56861;stroke-linecap:round;stroke-linejoin:round;stroke-miterlimit:4;stroke-dasharray:none;stroke-opacity:1"
             d="M 87.742638,65.966289 97.716289,42.010295 86.855904,30.795613 81.160939,43.681896 Z"
             id="path3525"
             sodipodi:nodetypes="ccccc" />
        </g>
        <g
           id="g3533"
           style="stroke:#504e4b;stroke-opacity:1">
          <path
             style="fill:none;stroke:#504e4b;stroke-width:1.66273;stroke-linecap:round;stroke-linejoin:round;stroke-miterlimit:4;stroke-dasharray:none;stroke-opacity:1"
             d="M 59.271821,40.292232 68.519657,30.559945 86.591648,30.728694 80.941987,43.694718 59.27922,40.313171 55.279018,55.940476 87.501488,65.956846 80.981399,43.845238 59.27922,40.313171"
             id="path3529"
             sodipodi:nodetypes="ccccccccc" />
          <path
             style="fill:none;stroke:#504e4b;stroke-width:1.56861;stroke-linecap:round;stroke-linejoin:round;stroke-miterlimit:4;stroke-dasharray:none;stroke-opacity:1"
             d="M 87.742638,65.966289 97.716289,42.010295 86.855904,30.795613 81.160939,43.681896 Z"
             id="path3531"
             sodipodi:nodetypes="ccccc" />
        </g>
      </g>
      <text
         xml:space="preserve"
         style="font-style:normal;font-weight:normal;font-size:7.59055px;line-height:1.25;font-family:sans-serif;fill:#504e4b;fill-opacity:1;stroke:none;stroke-width:0.189764;stroke-opacity:1"
         x="70.586517"
         y="42.165787"
         id="text3539"
         transform="matrix(1.2610718,0.10724274,-0.54719464,0.7464423,0,0)"><tspan
           sodipodi:role="line"
           id="tspan3537"
           x="70.586517"
           y="42.165787"
           style="fill:#504e4b;fill-opacity:1;stroke:none;stroke-width:0.189764;stroke-opacity:1">I</tspan></text>
    </g>
    <g
       id="g3561"
       transform="matrix(0.49836747,-0.04765831,0.04765831,0.49836747,108.23116,37.852023)">
      <g
         id="g3555"
         transform="matrix(0.59694733,0,0,0.59172737,25.937919,15.573584)">
        <g
           id="g3547"
           style="fill:#fdffba;fill-opacity:1;stroke:none"
           transform="translate(-0.86862597,1.8708867)">
          <path
             style="fill:#fdffba;fill-opacity:1;stroke:none;stroke-width:1.66273;stroke-linecap:round;stroke-linejoin:round;stroke-miterlimit:4;stroke-dasharray:none;stroke-opacity:1"
             d="m 59.271821,40.292232 9.247836,-9.732287 18.071991,0.168749 -6.14608,12.757918 L 59.27922,40.313171 55.279018,55.940476 86.983546,65.79359 80.745014,44.663562 59.27922,40.313171"
             id="path3543"
             sodipodi:nodetypes="ccccccccc" />
          <path
             style="fill:#fdffba;fill-opacity:1;stroke:none;stroke-width:1.56861;stroke-linecap:round;stroke-linejoin:round;stroke-miterlimit:4;stroke-dasharray:none;stroke-opacity:1"
             d="M 87.742638,65.966289 97.716289,42.010295 86.855904,30.795613 81.160939,43.681896 Z"
             id="path3545"
             sodipodi:nodetypes="ccccc" />
        </g>
        <g
           id="g3553"
           style="stroke:#504e4b;stroke-opacity:1">
          <path
             style="fill:none;stroke:#504e4b;stroke-width:1.66273;stroke-linecap:round;stroke-linejoin:round;stroke-miterlimit:4;stroke-dasharray:none;stroke-opacity:1"
             d="M 59.271821,40.292232 68.519657,30.559945 86.591648,30.728694 80.941987,43.694718 59.27922,40.313171 55.279018,55.940476 87.501488,65.956846 80.981399,43.845238 59.27922,40.313171"
             id="path3549"
             sodipodi:nodetypes="ccccccccc" />
          <path
             style="fill:none;stroke:#504e4b;stroke-width:1.56861;stroke-linecap:round;stroke-linejoin:round;stroke-miterlimit:4;stroke-dasharray:none;stroke-opacity:1"
             d="M 87.742638,65.966289 97.716289,42.010295 86.855904,30.795613 81.160939,43.681896 Z"
             id="path3551"
             sodipodi:nodetypes="ccccc" />
        </g>
      </g>
      <text
         xml:space="preserve"
         style="font-style:normal;font-weight:normal;font-size:7.59055px;line-height:1.25;font-family:sans-serif;fill:#504e4b;fill-opacity:1;stroke:none;stroke-width:0.189764;stroke-opacity:1"
         x="69.402748"
         y="41.852951"
         id="text3559"
         transform="matrix(1.2610718,0.10724274,-0.54719463,0.74644229,0,0)"><tspan
           sodipodi:role="line"
           id="tspan3557"
           x="69.402748"
           y="41.852951"
           style="fill:#504e4b;fill-opacity:1;stroke:none;stroke-width:0.189764;stroke-opacity:1">D</tspan></text>
    </g>
    <g
       id="g3581"
       transform="matrix(-0.21507964,0.72230021,-0.72230021,-0.21507964,235.89824,10.347616)">
      <g
         id="g3575"
         transform="matrix(0.59694733,0,0,0.59172737,25.937919,15.573584)">
        <g
           id="g3567"
           style="fill:#fdffba;fill-opacity:1;stroke:none"
           transform="translate(-0.86862597,1.8708867)">
          <path
             style="fill:#fdffba;fill-opacity:1;stroke:none;stroke-width:1.66273;stroke-linecap:round;stroke-linejoin:round;stroke-miterlimit:4;stroke-dasharray:none;stroke-opacity:1"
             d="M 59.271821,40.292232 68.519657,30.559945 86.591648,30.728694 80.508947,43.277637 59.27922,40.313171 55.279018,55.940476 87.501488,65.956846 80.71031,44.239338 59.27922,40.313171"
             id="path3563"
             sodipodi:nodetypes="ccccccccc" />
          <path
             style="fill:#fdffba;fill-opacity:1;stroke:none;stroke-width:1.56861;stroke-linecap:round;stroke-linejoin:round;stroke-miterlimit:4;stroke-dasharray:none;stroke-opacity:1"
             d="M 87.742638,65.966289 97.716289,42.010295 86.855904,30.795613 81.160939,43.681896 Z"
             id="path3565"
             sodipodi:nodetypes="ccccc" />
        </g>
        <g
           id="g3573"
           style="stroke:#504e4b;stroke-opacity:1">
          <path
             style="fill:none;stroke:#504e4b;stroke-width:1.66273;stroke-linecap:round;stroke-linejoin:round;stroke-miterlimit:4;stroke-dasharray:none;stroke-opacity:1"
             d="M 59.271821,40.292232 68.519657,30.559945 86.591648,30.728694 80.941987,43.694718 59.27922,40.313171 55.279018,55.940476 87.501488,65.956846 80.981399,43.845238 59.27922,40.313171"
             id="path3569"
             sodipodi:nodetypes="ccccccccc" />
          <path
             style="fill:none;stroke:#504e4b;stroke-width:1.56861;stroke-linecap:round;stroke-linejoin:round;stroke-miterlimit:4;stroke-dasharray:none;stroke-opacity:1"
             d="M 87.742638,65.966289 97.716289,42.010295 86.855904,30.795613 81.160939,43.681896 Z"
             id="path3571"
             sodipodi:nodetypes="ccccc" />
        </g>
      </g>
      <text
         xml:space="preserve"
         style="font-style:normal;font-weight:normal;font-size:7.59055px;line-height:1.25;font-family:sans-serif;fill:#504e4b;fill-opacity:1;stroke:#504e4b;stroke-width:0.681432;stroke-miterlimit:4;stroke-dasharray:none;stroke-opacity:1"
         x="69.508904"
         y="35.554703"
         id="text3579"
         transform="matrix(1.2530384,0.178039,-0.5883332,0.71446633,0,0)"><tspan
           sodipodi:role="line"
           id="tspan3577"
           x="69.508904"
           y="35.554703"
           style="fill:#504e4b;fill-opacity:1;stroke:#504e4b;stroke-width:0.681432;stroke-miterlimit:4;stroke-dasharray:none;stroke-opacity:1">_</tspan></text>
    </g>
    <g
       id="g3601"
       transform="matrix(0.24353922,-0.17392267,0.17392267,0.24353922,64.984018,32.691832)">
      <g
         id="g3595"
         transform="matrix(0.59694733,0,0,0.59172737,25.937919,15.573584)">
        <g
           id="g3587"
           style="fill:#fdffba;fill-opacity:1;stroke:none"
           transform="translate(-0.86862597,1.8708867)">
          <path
             style="fill:#fdffba;fill-opacity:1;stroke:none;stroke-width:1.66273;stroke-linecap:round;stroke-linejoin:round;stroke-miterlimit:4;stroke-dasharray:none;stroke-opacity:1"
             d="M 59.271821,40.292232 68.519657,30.559945 86.591648,30.728694 80.941987,43.694718 59.27922,40.313171 55.279018,55.940476 87.501488,65.956846 80.981399,43.845238 59.27922,40.313171"
             id="path3583"
             sodipodi:nodetypes="ccccccccc" />
          <path
             style="fill:#fdffba;fill-opacity:1;stroke:none;stroke-width:1.56861;stroke-linecap:round;stroke-linejoin:round;stroke-miterlimit:4;stroke-dasharray:none;stroke-opacity:1"
             d="M 87.742638,65.966289 97.716289,42.010295 86.855904,30.795613 81.160939,43.681896 Z"
             id="path3585"
             sodipodi:nodetypes="ccccc" />
        </g>
        <g
           id="g3593"
           style="stroke:#504e4b;stroke-opacity:1">
          <path
             style="fill:none;stroke:#504e4b;stroke-width:1.66273;stroke-linecap:round;stroke-linejoin:round;stroke-miterlimit:4;stroke-dasharray:none;stroke-opacity:1"
             d="M 59.271821,40.292232 68.519657,30.559945 86.591648,30.728694 80.941987,43.694718 59.27922,40.313171 55.279018,55.940476 87.501488,65.956846 80.981399,43.845238 59.27922,40.313171"
             id="path3589"
             sodipodi:nodetypes="ccccccccc" />
          <path
             style="fill:none;stroke:#504e4b;stroke-width:1.56861;stroke-linecap:round;stroke-linejoin:round;stroke-miterlimit:4;stroke-dasharray:none;stroke-opacity:1"
             d="M 87.742638,65.966289 97.716289,42.010295 86.855904,30.795613 81.160939,43.681896 Z"
             id="path3591"
             sodipodi:nodetypes="ccccc" />
        </g>
      </g>
      <text
         xml:space="preserve"
         style="font-style:normal;font-weight:normal;font-size:7.59055px;line-height:1.25;font-family:sans-serif;fill:#504e4b;fill-opacity:1;stroke:none;stroke-width:0.189764;stroke-opacity:1"
         x="69.402748"
         y="41.852951"
         id="text3599"
         transform="matrix(1.2610718,0.10724274,-0.54719463,0.74644229,0,0)"><tspan
           sodipodi:role="line"
           id="tspan3597"
           x="69.402748"
           y="41.852951"
           style="fill:#504e4b;fill-opacity:1;stroke:none;stroke-width:0.189764;stroke-opacity:1">O</tspan></text>
    </g>
    <g
       id="g3621"
       transform="matrix(0.15848994,0.03235866,-0.03235866,0.15848994,109.05983,34.153225)">
      <g
         id="g3615"
         transform="matrix(0.59694733,0,0,0.59172737,25.937919,15.573584)">
        <g
           id="g3607"
           style="fill:#fdffba;fill-opacity:1;stroke:none"
           transform="translate(-0.86862597,1.8708867)">
          <path
             style="fill:#fdffba;fill-opacity:1;stroke:none;stroke-width:1.66273;stroke-linecap:round;stroke-linejoin:round;stroke-miterlimit:4;stroke-dasharray:none;stroke-opacity:1"
             d="M 59.271821,40.292232 68.519657,30.559945 86.591648,30.728694 80.941987,43.694718 59.27922,40.313171 55.279018,55.940476 87.501488,65.956846 80.981399,43.845238 59.27922,40.313171"
             id="path3603"
             sodipodi:nodetypes="ccccccccc" />
          <path
             style="fill:#fdffba;fill-opacity:1;stroke:none;stroke-width:1.56861;stroke-linecap:round;stroke-linejoin:round;stroke-miterlimit:4;stroke-dasharray:none;stroke-opacity:1"
             d="M 87.742638,65.966289 97.716289,42.010295 86.855904,30.795613 81.160939,43.681896 Z"
             id="path3605"
             sodipodi:nodetypes="ccccc" />
        </g>
        <g
           id="g3613"
           style="stroke:#504e4b;stroke-opacity:1">
          <path
             style="fill:none;stroke:#504e4b;stroke-width:1.66273;stroke-linecap:round;stroke-linejoin:round;stroke-miterlimit:4;stroke-dasharray:none;stroke-opacity:1"
             d="M 59.271821,40.292232 68.519657,30.559945 86.591648,30.728694 80.941987,43.694718 59.27922,40.313171 55.279018,55.940476 87.501488,65.956846 80.981399,43.845238 59.27922,40.313171"
             id="path3609"
             sodipodi:nodetypes="ccccccccc" />
          <path
             style="fill:none;stroke:#504e4b;stroke-width:1.56861;stroke-linecap:round;stroke-linejoin:round;stroke-miterlimit:4;stroke-dasharray:none;stroke-opacity:1"
             d="M 87.742638,65.966289 97.716289,42.010295 86.855904,30.795613 81.160939,43.681896 Z"
             id="path3611"
             sodipodi:nodetypes="ccccc" />
        </g>
      </g>
      <text
         xml:space="preserve"
         style="font-style:normal;font-weight:normal;font-size:7.59055px;line-height:1.25;font-family:sans-serif;fill:#504e4b;fill-opacity:1;stroke:none;stroke-width:0.189764;stroke-opacity:1"
         x="69.402748"
         y="41.852951"
         id="text3619"
         transform="matrix(1.2610718,0.10724274,-0.54719463,0.74644229,0,0)"><tspan
           sodipodi:role="line"
           id="tspan3617"
           x="69.402748"
           y="41.852951"
           style="fill:#504e4b;fill-opacity:1;stroke:none;stroke-width:0.189764;stroke-opacity:1">S</tspan></text>
    </g>
    <g
       id="g3641"
       transform="matrix(0.48034296,0.14111022,-0.14111022,0.48034296,81.329659,-17.110349)">
      <g
         id="g3635"
         transform="matrix(0.59694733,0,0,0.59172737,25.937919,15.573584)">
        <g
           id="g3627"
           style="fill:#fdffba;fill-opacity:1;stroke:none"
           transform="translate(-0.86862597,1.8708867)">
          <path
             style="fill:#fdffba;fill-opacity:1;stroke:none;stroke-width:1.66273;stroke-linecap:round;stroke-linejoin:round;stroke-miterlimit:4;stroke-dasharray:none;stroke-opacity:1"
             d="m 59.271821,40.292232 9.247836,-9.732287 18.071991,0.168749 -6.05959,12.55858 L 59.27922,40.313171 55.279018,55.940476 86.848562,65.915267 80.653266,44.118794 59.27922,40.313171"
             id="path3623"
             sodipodi:nodetypes="ccccccccc" />
          <path
             style="fill:#fdffba;fill-opacity:1;stroke:none;stroke-width:1.56861;stroke-linecap:round;stroke-linejoin:round;stroke-miterlimit:4;stroke-dasharray:none;stroke-opacity:1"
             d="M 87.742638,65.966289 97.716289,42.010295 86.855904,30.795613 81.160939,43.681896 Z"
             id="path3625"
             sodipodi:nodetypes="ccccc" />
        </g>
        <g
           id="g3633"
           style="stroke:#504e4b;stroke-opacity:1">
          <path
             style="fill:none;stroke:#504e4b;stroke-width:1.66273;stroke-linecap:round;stroke-linejoin:round;stroke-miterlimit:4;stroke-dasharray:none;stroke-opacity:1"
             d="M 59.271821,40.292232 68.519657,30.559945 86.591648,30.728694 80.941987,43.694718 59.27922,40.313171 55.279018,55.940476 87.501488,65.956846 80.981399,43.845238 59.27922,40.313171"
             id="path3629"
             sodipodi:nodetypes="ccccccccc" />
          <path
             style="fill:none;stroke:#504e4b;stroke-width:1.56861;stroke-linecap:round;stroke-linejoin:round;stroke-miterlimit:4;stroke-dasharray:none;stroke-opacity:1"
             d="M 87.742638,65.966289 97.716289,42.010295 86.855904,30.795613 81.160939,43.681896 Z"
             id="path3631"
             sodipodi:nodetypes="ccccc" />
        </g>
      </g>
      <text
         xml:space="preserve"
         style="font-style:normal;font-weight:normal;font-size:7.59055px;line-height:1.25;font-family:sans-serif;fill:#504e4b;fill-opacity:1;stroke:none;stroke-width:0.189764;stroke-opacity:1"
         x="69.402748"
         y="41.852951"
         id="text3639"
         transform="matrix(1.2610718,0.10724274,-0.54719463,0.74644229,0,0)"><tspan
           sodipodi:role="line"
           id="tspan3637"
           x="69.402748"
           y="41.852951"
           style="fill:#504e4b;fill-opacity:1;stroke:none;stroke-width:0.189764;stroke-opacity:1">M</tspan></text>
    </g>
    <g
       id="g3661"
       transform="matrix(0.3616328,0.0185853,-0.0185853,0.3616328,-1.3443752,26.053764)">
      <g
         id="g3655"
         transform="matrix(0.59694733,0,0,0.59172737,25.937919,15.573584)">
        <g
           id="g3647"
           style="fill:#fdffba;fill-opacity:1;stroke:none"
           transform="translate(-0.86862597,1.8708867)">
          <path
             style="fill:#fdffba;fill-opacity:1;stroke:none;stroke-width:1.66273;stroke-linecap:round;stroke-linejoin:round;stroke-miterlimit:4;stroke-dasharray:none;stroke-opacity:1"
             d="M 59.271821,40.292232 68.519657,30.559945 86.591648,30.728694 80.941987,43.694718 59.27922,40.313171 55.279018,55.940476 87.501488,65.956846 80.981399,43.845238 59.27922,40.313171"
             id="path3643"
             sodipodi:nodetypes="ccccccccc" />
          <path
             style="fill:#fdffba;fill-opacity:1;stroke:none;stroke-width:1.56861;stroke-linecap:round;stroke-linejoin:round;stroke-miterlimit:4;stroke-dasharray:none;stroke-opacity:1"
             d="M 87.742638,65.966289 97.716289,42.010295 86.855904,30.795613 81.160939,43.681896 Z"
             id="path3645"
             sodipodi:nodetypes="ccccc" />
        </g>
        <g
           id="g3653"
           style="stroke:#504e4b;stroke-opacity:1">
          <path
             style="fill:none;stroke:#504e4b;stroke-width:1.66273;stroke-linecap:round;stroke-linejoin:round;stroke-miterlimit:4;stroke-dasharray:none;stroke-opacity:1"
             d="M 59.271821,40.292232 68.519657,30.559945 86.591648,30.728694 80.941987,43.694718 59.27922,40.313171 55.279018,55.940476 87.501488,65.956846 80.981399,43.845238 59.27922,40.313171"
             id="path3649"
             sodipodi:nodetypes="ccccccccc" />
          <path
             style="fill:none;stroke:#504e4b;stroke-width:1.56861;stroke-linecap:round;stroke-linejoin:round;stroke-miterlimit:4;stroke-dasharray:none;stroke-opacity:1"
             d="M 87.742638,65.966289 97.716289,42.010295 86.855904,30.795613 81.160939,43.681896 Z"
             id="path3651"
             sodipodi:nodetypes="ccccc" />
        </g>
      </g>
      <text
         xml:space="preserve"
         style="font-style:normal;font-weight:normal;font-size:7.59055px;line-height:1.25;font-family:sans-serif;fill:#504e4b;fill-opacity:1;stroke:none;stroke-width:0.189764;stroke-opacity:1"
         x="69.402748"
         y="41.852951"
         id="text3659"
         transform="matrix(1.2610718,0.10724274,-0.54719463,0.74644229,0,0)"><tspan
           sodipodi:role="line"
           id="tspan3657"
           x="69.402748"
           y="41.852951"
           style="fill:#504e4b;fill-opacity:1;stroke:none;stroke-width:0.189764;stroke-opacity:1">C</tspan></text>
    </g>
    <g
       id="g3681"
       transform="matrix(0.14523091,-0.23370662,0.23370662,0.14523091,-10.579032,60.85752)">
      <g
         id="g3675"
         transform="matrix(0.59694733,0,0,0.59172737,25.937919,15.573584)">
        <g
           id="g3667"
           style="fill:#fdffba;fill-opacity:1;stroke:none"
           transform="translate(-0.86862597,1.8708867)">
          <path
             style="fill:#fdffba;fill-opacity:1;stroke:none;stroke-width:1.66273;stroke-linecap:round;stroke-linejoin:round;stroke-miterlimit:4;stroke-dasharray:none;stroke-opacity:1"
             d="M 59.271821,40.292232 68.519657,30.559945 86.591648,30.728694 80.941987,43.694718 59.27922,40.313171 55.279018,55.940476 87.501488,65.956846 80.981399,43.845238 59.27922,40.313171"
             id="path3663"
             sodipodi:nodetypes="ccccccccc" />
          <path
             style="fill:#fdffba;fill-opacity:1;stroke:none;stroke-width:1.56861;stroke-linecap:round;stroke-linejoin:round;stroke-miterlimit:4;stroke-dasharray:none;stroke-opacity:1"
             d="M 87.742638,65.966289 97.716289,42.010295 86.855904,30.795613 81.160939,43.681896 Z"
             id="path3665"
             sodipodi:nodetypes="ccccc" />
        </g>
        <g
           id="g3673"
           style="stroke:#504e4b;stroke-opacity:1">
          <path
             style="fill:none;stroke:#504e4b;stroke-width:1.66273;stroke-linecap:round;stroke-linejoin:round;stroke-miterlimit:4;stroke-dasharray:none;stroke-opacity:1"
             d="M 59.271821,40.292232 68.519657,30.559945 86.591648,30.728694 80.941987,43.694718 59.27922,40.313171 55.279018,55.940476 87.501488,65.956846 80.981399,43.845238 59.27922,40.313171"
             id="path3669"
             sodipodi:nodetypes="ccccccccc" />
          <path
             style="fill:none;stroke:#504e4b;stroke-width:1.56861;stroke-linecap:round;stroke-linejoin:round;stroke-miterlimit:4;stroke-dasharray:none;stroke-opacity:1"
             d="M 87.742638,65.966289 97.716289,42.010295 86.855904,30.795613 81.160939,43.681896 Z"
             id="path3671"
             sodipodi:nodetypes="ccccc" />
        </g>
      </g>
      <text
         xml:space="preserve"
         style="font-style:normal;font-weight:normal;font-size:7.59055px;line-height:1.25;font-family:sans-serif;fill:#504e4b;fill-opacity:1;stroke:none;stroke-width:0.189764;stroke-opacity:1"
         x="69.402748"
         y="41.852951"
         id="text3679"
         transform="matrix(1.2610718,0.10724274,-0.54719463,0.74644229,0,0)"><tspan
           sodipodi:role="line"
           id="tspan3677"
           x="69.402748"
           y="41.852951"
           style="fill:#504e4b;fill-opacity:1;stroke:none;stroke-width:0.189764;stroke-opacity:1">E</tspan></text>
    </g>
    <g
       id="g3715"
       transform="matrix(0.36545679,-0.12779529,0.12779529,0.36545679,-3.6083398,54.6163)">
      <g
         id="g3709"
         transform="matrix(0.59694733,0,0,0.59172737,25.937919,15.573584)">
        <g
           id="g3701"
           style="fill:#fdffba;fill-opacity:1;stroke:none"
           transform="translate(-0.86862597,1.8708867)">
          <path
             style="fill:#fdffba;fill-opacity:1;stroke:none;stroke-width:1.66273;stroke-linecap:round;stroke-linejoin:round;stroke-miterlimit:4;stroke-dasharray:none;stroke-opacity:1"
             d="M 59.271821,40.292232 68.519657,30.559945 86.591648,30.728694 80.941987,43.694718 59.27922,40.313171 55.279018,55.940476 87.501488,65.956846 80.981399,43.845238 59.27922,40.313171"
             id="path3697"
             sodipodi:nodetypes="ccccccccc" />
          <path
             style="fill:#fdffba;fill-opacity:1;stroke:none;stroke-width:1.56861;stroke-linecap:round;stroke-linejoin:round;stroke-miterlimit:4;stroke-dasharray:none;stroke-opacity:1"
             d="M 87.742638,65.966289 97.716289,42.010295 86.855904,30.795613 81.160939,43.681896 Z"
             id="path3699"
             sodipodi:nodetypes="ccccc" />
        </g>
        <g
           id="g3707"
           style="stroke:#504e4b;stroke-opacity:1">
          <path
             style="fill:none;stroke:#504e4b;stroke-width:1.66273;stroke-linecap:round;stroke-linejoin:round;stroke-miterlimit:4;stroke-dasharray:none;stroke-opacity:1"
             d="M 59.271821,40.292232 68.519657,30.559945 86.591648,30.728694 80.941987,43.694718 59.27922,40.313171 55.279018,55.940476 87.501488,65.956846 80.981399,43.845238 59.27922,40.313171"
             id="path3703"
             sodipodi:nodetypes="ccccccccc" />
          <path
             style="fill:none;stroke:#504e4b;stroke-width:1.56861;stroke-linecap:round;stroke-linejoin:round;stroke-miterlimit:4;stroke-dasharray:none;stroke-opacity:1"
             d="M 87.742638,65.966289 97.716289,42.010295 86.855904,30.795613 81.160939,43.681896 Z"
             id="path3705"
             sodipodi:nodetypes="ccccc" />
        </g>
      </g>
      <text
         xml:space="preserve"
         style="font-style:normal;font-weight:normal;font-size:7.59055px;line-height:1.25;font-family:sans-serif;fill:#504e4b;fill-opacity:1;stroke:none;stroke-width:0.189764;stroke-opacity:1"
         x="69.402748"
         y="41.852951"
         id="text3713"
         transform="matrix(1.2610718,0.10724274,-0.54719463,0.74644229,0,0)"><tspan
           sodipodi:role="line"
           id="tspan3711"
           x="69.402748"
           y="41.852951"
           style="fill:#504e4b;fill-opacity:1;stroke:none;stroke-width:0.189764;stroke-opacity:1">E</tspan></text>
    </g>
    <g
       id="g3735"
       transform="matrix(0.36976377,-0.05279025,0.05279025,0.36976377,108.77513,12.578293)">
      <g
         id="g3729"
         transform="matrix(0.59694733,0,0,0.59172737,25.937919,15.573584)">
        <g
           id="g3721"
           style="fill:#fdffba;fill-opacity:1;stroke:none"
           transform="translate(-0.86862597,1.8708867)">
          <path
             style="fill:#fdffba;fill-opacity:1;stroke:none;stroke-width:1.66273;stroke-linecap:round;stroke-linejoin:round;stroke-miterlimit:4;stroke-dasharray:none;stroke-opacity:1"
             d="M 59.271821,40.292232 68.519657,30.559945 86.591648,30.728694 80.32764,43.498267 59.27922,40.313171 55.279018,55.940476 86.527525,65.654616 80.591866,44.328979 59.27922,40.313171"
             id="path3717"
             sodipodi:nodetypes="ccccccccc" />
          <path
             style="fill:#fdffba;fill-opacity:1;stroke:none;stroke-width:1.56861;stroke-linecap:round;stroke-linejoin:round;stroke-miterlimit:4;stroke-dasharray:none;stroke-opacity:1"
             d="M 87.742638,65.966289 97.716289,42.010295 86.855904,30.795613 81.160939,43.681896 Z"
             id="path3719"
             sodipodi:nodetypes="ccccc" />
        </g>
        <g
           id="g3727"
           style="stroke:#504e4b;stroke-opacity:1">
          <path
             style="fill:none;stroke:#504e4b;stroke-width:1.66273;stroke-linecap:round;stroke-linejoin:round;stroke-miterlimit:4;stroke-dasharray:none;stroke-opacity:1"
             d="M 59.271821,40.292232 68.519657,30.559945 86.591648,30.728694 80.941987,43.694718 59.27922,40.313171 55.279018,55.940476 87.501488,65.956846 80.981399,43.845238 59.27922,40.313171"
             id="path3723"
             sodipodi:nodetypes="ccccccccc" />
          <path
             style="fill:none;stroke:#504e4b;stroke-width:1.56861;stroke-linecap:round;stroke-linejoin:round;stroke-miterlimit:4;stroke-dasharray:none;stroke-opacity:1"
             d="M 87.742638,65.966289 97.716289,42.010295 86.855904,30.795613 81.160939,43.681896 Z"
             id="path3725"
             sodipodi:nodetypes="ccccc" />
        </g>
      </g>
      <text
         xml:space="preserve"
         style="font-style:normal;font-weight:normal;font-size:7.59055px;line-height:1.25;font-family:sans-serif;fill:#504e4b;fill-opacity:1;stroke:none;stroke-width:0.189764;stroke-opacity:1"
         x="69.402748"
         y="41.852951"
         id="text3733"
         transform="matrix(1.2610718,0.10724274,-0.54719463,0.74644229,0,0)"><tspan
           sodipodi:role="line"
           id="tspan3731"
           x="69.402748"
           y="41.852951"
           style="fill:#504e4b;fill-opacity:1;stroke:none;stroke-width:0.189764;stroke-opacity:1">S</tspan></text>
    </g>
    <g
       id="g3755"
       transform="matrix(0.90438048,0.44735491,-0.44735491,0.90438048,130.80022,-26.074395)">
      <g
         id="g3749"
         transform="matrix(0.59694733,0,0,0.59172737,25.937919,15.573584)">
        <g
           id="g3741"
           style="fill:#fdffba;fill-opacity:1;stroke:none"
           transform="translate(-0.86862597,1.8708867)">
          <path
             style="fill:#fdffba;fill-opacity:1;stroke:none;stroke-width:1.66273;stroke-linecap:round;stroke-linejoin:round;stroke-miterlimit:4;stroke-dasharray:none;stroke-opacity:1"
             d="M 59.271821,40.292232 68.519657,30.559945 86.591648,30.728694 80.362102,43.939947 59.27922,40.313171 55.279018,55.940476 86.378377,66.075857 80.46769,45.028611 59.27922,40.313171"
             id="path3737"
             sodipodi:nodetypes="ccccccccc" />
          <path
             style="fill:#fdffba;fill-opacity:1;stroke:none;stroke-width:1.56861;stroke-linecap:round;stroke-linejoin:round;stroke-miterlimit:4;stroke-dasharray:none;stroke-opacity:1"
             d="M 87.742638,65.966289 97.716289,42.010295 86.855904,30.795613 81.160939,43.681896 Z"
             id="path3739"
             sodipodi:nodetypes="ccccc" />
        </g>
        <g
           id="g3747"
           style="stroke:#504e4b;stroke-opacity:1">
          <path
             style="fill:none;stroke:#504e4b;stroke-width:1.66273;stroke-linecap:round;stroke-linejoin:round;stroke-miterlimit:4;stroke-dasharray:none;stroke-opacity:1"
             d="M 59.271821,40.292232 68.519657,30.559945 86.591648,30.728694 80.941987,43.694718 59.27922,40.313171 55.279018,55.940476 87.501488,65.956846 80.981399,43.845238 59.27922,40.313171"
             id="path3743"
             sodipodi:nodetypes="ccccccccc" />
          <path
             style="fill:none;stroke:#504e4b;stroke-width:1.56861;stroke-linecap:round;stroke-linejoin:round;stroke-miterlimit:4;stroke-dasharray:none;stroke-opacity:1"
             d="M 87.742638,65.966289 97.716289,42.010295 86.855904,30.795613 81.160939,43.681896 Z"
             id="path3745"
             sodipodi:nodetypes="ccccc" />
        </g>
      </g>
      <text
         xml:space="preserve"
         style="font-style:normal;font-weight:normal;font-size:7.59055px;line-height:1.25;font-family:sans-serif;fill:#504e4b;fill-opacity:1;stroke:none;stroke-width:0.189764;stroke-opacity:1"
         x="69.402748"
         y="41.852951"
         id="text3753"
         transform="matrix(1.2610718,0.10724274,-0.54719463,0.74644229,0,0)"><tspan
           sodipodi:role="line"
           id="tspan3751"
           x="69.402748"
           y="41.852951"
           style="fill:#504e4b;fill-opacity:1;stroke:none;stroke-width:0.189764;stroke-opacity:1">R</tspan></text>
    </g>
    <g
       id="g3775"
       transform="matrix(0.22830041,-0.0568033,0.0568033,0.22830041,81.006796,29.896433)">
      <g
         id="g3769"
         transform="matrix(0.59694733,0,0,0.59172737,25.937919,15.573584)">
        <g
           id="g3761"
           style="fill:#fdffba;fill-opacity:1;stroke:none"
           transform="translate(-0.86862597,1.8708867)">
          <path
             style="fill:#fdffba;fill-opacity:1;stroke:none;stroke-width:1.66273;stroke-linecap:round;stroke-linejoin:round;stroke-miterlimit:4;stroke-dasharray:none;stroke-opacity:1"
             d="M 59.271821,40.292232 68.519657,30.559945 86.591648,30.728694 80.941987,43.694718 59.27922,40.313171 55.279018,55.940476 87.501488,65.956846 80.981399,43.845238 59.27922,40.313171"
             id="path3757"
             sodipodi:nodetypes="ccccccccc" />
          <path
             style="fill:#fdffba;fill-opacity:1;stroke:none;stroke-width:1.56861;stroke-linecap:round;stroke-linejoin:round;stroke-miterlimit:4;stroke-dasharray:none;stroke-opacity:1"
             d="M 87.742638,65.966289 97.716289,42.010295 86.855904,30.795613 81.160939,43.681896 Z"
             id="path3759"
             sodipodi:nodetypes="ccccc" />
        </g>
        <g
           id="g3767"
           style="stroke:#504e4b;stroke-opacity:1">
          <path
             style="fill:none;stroke:#504e4b;stroke-width:1.66273;stroke-linecap:round;stroke-linejoin:round;stroke-miterlimit:4;stroke-dasharray:none;stroke-opacity:1"
             d="M 59.271821,40.292232 68.519657,30.559945 86.591648,30.728694 80.941987,43.694718 59.27922,40.313171 55.279018,55.940476 87.501488,65.956846 80.981399,43.845238 59.27922,40.313171"
             id="path3763"
             sodipodi:nodetypes="ccccccccc" />
          <path
             style="fill:none;stroke:#504e4b;stroke-width:1.56861;stroke-linecap:round;stroke-linejoin:round;stroke-miterlimit:4;stroke-dasharray:none;stroke-opacity:1"
             d="M 87.742638,65.966289 97.716289,42.010295 86.855904,30.795613 81.160939,43.681896 Z"
             id="path3765"
             sodipodi:nodetypes="ccccc" />
        </g>
      </g>
      <text
         xml:space="preserve"
         style="font-style:normal;font-weight:normal;font-size:7.59055px;line-height:1.25;font-family:sans-serif;fill:#504e4b;fill-opacity:1;stroke:none;stroke-width:0.189764;stroke-opacity:1"
         x="69.402748"
         y="41.852951"
         id="text3773"
         transform="matrix(1.2610718,0.10724274,-0.54719463,0.74644229,0,0)"><tspan
           sodipodi:role="line"
           id="tspan3771"
           x="69.402748"
           y="41.852951"
           style="fill:#504e4b;fill-opacity:1;stroke:none;stroke-width:0.189764;stroke-opacity:1">T</tspan></text>
    </g>
  </g>
  <g
     inkscape:groupmode="layer"
     id="layer2"
     inkscape:label="hide"
     style="display:none">
    <ellipse
       style="fill:#fdffba;fill-opacity:1;stroke:none;stroke-width:3.96875;stroke-linecap:round;stroke-linejoin:round;paint-order:stroke fill markers"
       id="path3044"
       cx="238.53806"
       cy="107.44235"
       rx="4.9444861"
       ry="6.1471992" />
    <ellipse
       style="fill:#20639b;fill-opacity:1;stroke:none;stroke-width:3.96875;stroke-linecap:round;stroke-linejoin:round;paint-order:stroke fill markers"
       id="path3046"
       cx="240.2753"
       cy="127.08666"
       rx="3.7417734"
       ry="6.2808337" />
    <ellipse
       style="fill:#504e4b;fill-opacity:1;stroke:none;stroke-width:3.96875;stroke-linecap:round;stroke-linejoin:round;paint-order:stroke fill markers"
       id="ellipse3048"
       cx="225.57547"
       cy="135.37202"
       rx="3.7417734"
       ry="6.2808337" />
  </g>
</svg>
