<?xml version="1.0" encoding="UTF-8" standalone="no"?>
<!DOCTYPE svg PUBLIC "-//W3C//DTD SVG 1.1//EN" "http://www.w3.org/Graphics/SVG/1.1/DTD/svg11.dtd">
<svg version="1.1" xmlns="http://www.w3.org/2000/svg" xmlns:xlink="http://www.w3.org/1999/xlink" preserveAspectRatio="xMidYMid meet" viewBox="0 0 1277 640" width="1277" height="640"><defs><path d="M1286.14 -9.83L1286.14 337.81C1261.44 463.94 1217.55 522.91 1154.49 514.72C1059.89 502.44 1108.57 392.16 1031.86 373.04C948.76 352.32 845.78 418.95 822.78 369.76C778.55 275.16 1015.66 233.39 945.64 171.96C875.61 110.53 622.53 200.22 604.1 125.28C595.81 91.55 612.28 44.58 654.6 18.55C682.81 1.2 719.62 -8.26 765.04 -9.83L1286.14 -9.83Z" id="f1qvdRN65m"></path><radialGradient id="gradiente3T4xu4wSS" gradientUnits="userSpaceOnUse" cx="1175.05" cy="87.23" dx="687.32" dy="375.42" r="566.51"><stop style="stop-color: #2c76b3;stop-opacity: 1" offset="0%"></stop><stop style="stop-color: #20639b;stop-opacity: 1" offset="100%"></stop></radialGradient><path d="M88.63 132.17C96.76 138.93 107.94 135.09 107.94 144.19C107.94 161.7 84.87 172.18 69.64 172.18C54.41 172.18 42.04 157.97 42.04 140.46C42.04 122.96 54.41 108.74 69.64 108.74C76.95 108.74 81.12 125.94 88.63 132.17Z" id="b2hyY3U9ro"></path><radialGradient id="gradiente5srzG6g4" gradientUnits="userSpaceOnUse" cx="74.99" cy="108.74" dx="74.99" dy="172.18" r="63.44"><stop style="stop-color: #2c76b3;stop-opacity: 1" offset="0%"></stop><stop style="stop-color: #20639b;stop-opacity: 1" offset="100%"></stop></radialGradient><path d="M163.5 130.41C163.5 135.96 158.99 140.46 153.45 140.46C147.9 140.46 143.4 135.96 143.4 130.41C143.4 124.86 147.9 120.36 153.45 120.36C158.99 120.36 163.5 124.86 163.5 130.41Z" id="aEbnPh3l4"></path><radialGradient id="gradienta4atdwYNg8" gradientUnits="userSpaceOnUse" cx="153.45" cy="120.36" dx="153.45" dy="140.46" r="20.1"><stop style="stop-color: #2c76b3;stop-opacity: 1" offset="0%"></stop><stop style="stop-color: #20639b;stop-opacity: 1" offset="100%"></stop></radialGradient><path d="M53.38 -32.06C75.11 -39.11 82.01 -64.08 97.95 -53.49C128.62 -33.13 118.87 21.38 100.33 49.31C81.78 77.24 41.82 83.38 11.16 63.02C-19.5 42.66 -29.34 3.45 -10.79 -24.48C-1.89 -37.89 33.31 -25.54 53.38 -32.06Z" id="d2qlxWkGk"></path><radialGradient id="gradientbNqqG0M5z" gradientUnits="userSpaceOnUse" cx="-4.27" cy="-34.3" dx="106.85" dy="39.49" r="133.39"><stop style="stop-color: #2c76b3;stop-opacity: 1" offset="0%"></stop><stop style="stop-color: #20639b;stop-opacity: 1" offset="100%"></stop></radialGradient></defs><g><g><g><use xlink:href="#f1qvdRN65m" opacity="1" fill="url(#gradiente3T4xu4wSS)"></use></g><g><use xlink:href="#b2hyY3U9ro" opacity="1" fill="url(#gradiente5srzG6g4)"></use></g><g><use xlink:href="#aEbnPh3l4" opacity="1" fill="url(#gradienta4atdwYNg8)"></use></g><g><use xlink:href="#d2qlxWkGk" opacity="1" fill="url(#gradientbNqqG0M5z)"></use></g></g></g></svg>